<?xml version="1.0" encoding="utf-8"?>
<!-- Generator: Adobe Illustrator 19.0.0, SVG Export Plug-In . SVG Version: 6.00 Build 0)  -->
<svg version="1.1" id="Layer_1" xmlns="http://www.w3.org/2000/svg" xmlns:xlink="http://www.w3.org/1999/xlink" x="0px" y="0px"
	 viewBox="132.6 223.6 955.5 114" style="enable-background:new 132.6 223.6 955.5 114;" xml:space="preserve">
<style type="text/css">
	.st0{fill:#00E8B1;}
	.st1{fill:url(#SVGID_1_);}
	.st2{fill:#090909;}
</style>
<path class="st0" d="M270.1,254v-21c-24,0-46,9.1-62.6,24c-16.6-14.9-38.6-24-62.6-24v21c18.7,0,35.7,7.1,48.7,18.6
	c-4.2,5.8-7.7,12.2-10.4,18.9c-9.5-10.3-23.2-16.7-38.3-16.7v21c17.2,0,31.3,14,31.3,31.3h21c0-13.7,3.8-26.5,10.4-37.5
	c6.6,11,10.4,23.8,10.4,37.5h21c0-17.2,14-31.3,31.3-31.3v-21c-15.1,0-28.7,6.4-38.3,16.7c-2.8-6.7-6.3-13-10.4-18.9
	C234.4,261,251.4,254,270.1,254"/>
<linearGradient id="SVGID_1_" gradientUnits="userSpaceOnUse" x1="144.9" y1="279.95" x2="270.149" y2="279.95" gradientTransform="matrix(1 0 0 -1 0 560)">
	<stop  offset="0" style="stop-color:#FFFFFF;stop-opacity:0"/>
	<stop  offset="1" style="stop-color:#94FFBC;stop-opacity:0.8"/>
</linearGradient>
<path class="st1" d="M270.1,254v-21c-24,0-46,9.1-62.6,24c-16.6-14.9-38.6-24-62.6-24v21c18.7,0,35.7,7.1,48.7,18.6
	c-4.2,5.8-7.7,12.2-10.4,18.9c-9.5-10.3-23.2-16.7-38.3-16.7v21c17.2,0,31.3,14,31.3,31.3h21c0-13.7,3.8-26.5,10.4-37.5
	c6.6,11,10.4,23.8,10.4,37.5h21c0-17.2,14-31.3,31.3-31.3v-21c-15.1,0-28.7,6.4-38.3,16.7c-2.8-6.7-6.3-13-10.4-18.9
	C234.4,261,251.4,254,270.1,254"/>
<polygon class="st2" points="395.7,242.6 395.7,317.4 373.9,317.4 373.9,288.5 329,288.5 329,317.4 307.1,317.4 307.1,242.6 
	329,242.6 329,270.5 373.9,270.5 373.9,242.6 "/>
<polygon class="st2" points="428.5,242.6 450.3,274.9 472,242.6 496.3,242.6 461.1,292.2 461.1,317.4 439.3,317.4 439.3,292.2 
	404.1,242.6 "/>
<path class="st2" d="M590.7,268.8c0,17.4-13.6,26.2-34,26.2h-30.2v22.5h-21.8v-74.9h52C577.1,242.6,590.7,251.5,590.7,268.8
	 M568.5,269.2c0-7.6-5.6-10.1-13.7-10.1h-28.4v20h28.4C563,279.1,568.5,276.7,568.5,269.2"/>
<polygon class="st2" points="717,259.8 717,274 764.3,274 764.3,291 717,291 717,317.4 695.2,317.4 695.2,242.6 773.6,242.6 
	773.6,259.8 "/>
<path class="st2" d="M838,303.1h-41.1l-7.1,14.3h-22.9l38.7-74.9h23.9l38.7,74.9H845L838,303.1z M830.4,287.6l-12.9-26.5l-13.1,26.5
	H830.4z"/>
<path class="st2" d="M940,317.4l-19.8-23.6h-22v23.6h-21.7v-74.9H929c19.2,0,34,8.5,34,25.6c0,12.5-7.9,20.4-19.7,23.9l22,25.5H940
	V317.4z M927.4,278c7.8,0,13.5-2.1,13.5-9.4c0-7.3-5.7-9.4-13.5-9.4h-29.3V278H927.4z"/>
<polygon class="st2" points="1080.6,242.6 1080.6,317.4 1058.9,317.4 1058.9,269.6 1029.1,306.2 1028,306.2 998.1,269.6 
	998.1,317.4 977.1,317.4 977.1,242.6 1000.9,242.6 1029.1,278.5 1057.4,242.6 "/>
<rect x="602.1" y="242.6" class="st2" width="78.7" height="16.6"/>
<rect x="602.1" y="271.5" class="st2" width="50.5" height="15.9"/>
<rect x="602.1" y="300.9" class="st2" width="78.7" height="15.9"/>
</svg>
